<svg width="140" height="40" viewBox="0 0 140 40" fill="none" xmlns="http://www.w3.org/2000/svg">
  <rect x="8" y="8" width="24" height="8" rx="2" fill="#F97316"/>
  <rect x="8" y="20" width="24" height="8" rx="2" fill="#F97316"/>
  <rect x="8" y="32" width="24" height="0" rx="0" fill="#F97316"/>
  <rect x="44" y="8" width="24" height="24" rx="2" fill="#F97316"/>
  <path d="M89.848 29V11.8H103.864V15.192H93.864V18.584H102.92V21.976H93.864V25.608H104.024V29H89.848Z" fill="#F97316"/>
  <path d="M113.48 29.304C111.144 29.304 109.352 28.632 108.104 27.288C106.856 25.928 106.232 23.976 106.232 21.432C106.232 18.888 106.856 16.944 108.104 15.592C109.352 14.224 111.144 13.544 113.48 13.544C115.832 13.544 117.624 14.224 118.856 15.592C120.104 16.944 120.728 18.888 120.728 21.432C120.728 23.976 120.104 25.928 118.856 27.288C117.624 28.632 115.832 29.304 113.48 29.304ZM113.48 25.816C114.312 25.816 114.936 25.496 115.352 24.856C115.784 24.2 116 23.048 116 21.4C116 19.768 115.784 18.624 115.352 17.976C114.936 17.32 114.312 16.992 113.48 16.992C112.648 16.992 112.024 17.32 111.608 17.976C111.192 18.624 110.984 19.768 110.984 21.4C110.984 23.048 111.192 24.2 111.608 24.856C112.024 25.496 112.648 25.816 113.48 25.816Z" fill="#F97316"/>
  <path d="M130.576 29.304C129.008 29.304 127.68 28.856 126.592 27.96C125.504 27.048 124.96 25.72 124.96 23.976V23.784H128.816V23.928C128.816 25.384 129.392 26.112 130.544 26.112C131.088 26.112 131.504 25.976 131.792 25.704C132.08 25.432 132.224 25.048 132.224 24.552C132.224 24.008 132.04 23.576 131.672 23.256C131.304 22.936 130.64 22.616 129.68 22.296C128.304 21.848 127.264 21.344 126.56 20.784C125.856 20.208 125.504 19.368 125.504 18.264C125.504 17.064 125.936 16.104 126.8 15.384C127.68 14.664 128.848 14.304 130.304 14.304C131.792 14.304 132.992 14.744 133.904 15.624C134.816 16.488 135.272 17.672 135.272 19.176V19.272H131.432V19.208C131.432 18.712 131.296 18.32 131.024 18.04C130.752 17.744 130.368 17.592 129.872 17.592C129.424 17.592 129.072 17.712 128.816 17.944C128.56 18.176 128.432 18.504 128.432 18.92C128.432 19.4 128.608 19.784 128.96 20.072C129.328 20.36 129.984 20.664 130.928 20.984C132.32 21.464 133.368 22 134.072 22.6C134.792 23.184 135.152 24.04 135.152 25.176C135.152 26.44 134.696 27.448 133.784 28.2C132.888 28.936 131.712 29.304 130.576 29.304Z" fill="#F97316"/>
</svg> 