<svg width="50" height="50" viewBox="0 0 50 50" fill="none" xmlns="http://www.w3.org/2000/svg">
<path d="M41.984 22.578C41.995 22.38 42 22.188 42 22C42 14.71 36.287 9 28.993 9C23.928 9 19.631 11.673 17.486 16.063C16.387 15.371 15.062 15 13.641 15C10.004 15 7.225 17.767 7.002 21.512C2.54 23.021 0 26.561 0 31.331C0 36.662 4.338 41 9.67 41H16.809C19.503 47.177 24.285 49.656 24.5 49.8L25 50L25.5 49.8C25.784 49.658 30.45 47.023 33.134 41H41.098C46.007 41 50 37.007 50 32.099C50 27.37 46.386 23.179 41.984 22.578ZM25 47.7C23.2 46.7 17.3 42.4 17 32.7C19.6 32.1 21.1 31.3 22.2 30.8C23.3 30.2 23.9 29.9 25 29.9C26.1 29.9 26.7 30.2 27.8 30.8C29 31.3 30.5 32.1 33 32.7C32.7 42 26.7 46.6 25 47.7Z" fill="url(#paint0_linear_2391_777)"/>
<defs>
<linearGradient id="paint0_linear_2391_777" x1="25" y1="9" x2="25" y2="50" gradientUnits="userSpaceOnUse">
<stop stop-color="#00B140"/>
<stop offset="1" stop-color="#018531"/>
</linearGradient>
</defs>
</svg>
