<svg width="50" height="50" viewBox="0 0 50 50" fill="none" xmlns="http://www.w3.org/2000/svg">
<path d="M25 0.0976562C23.019 0.0976562 21.229 1.0398 18.752 2.3418C15.561 4.0208 11.1882 6.31836 3.78516 7.94336L3 8.11523V8.91992C3 39.3849 24.3641 49.6002 24.5801 49.6992L25.0215 49.9023L25.4531 49.6816C25.6681 49.5716 47 38.3699 47 8.91992V8.11523L46.2148 7.94336C38.8118 6.31836 34.439 4.0208 31.248 2.3418C28.771 1.0398 26.981 0.0976562 25 0.0976562ZM25.0508 12.9199L27.4297 19.1641L27.6582 19.7695L28.3047 19.8086L35 20.2031C35.002 20.2341 34.9926 20.2573 34.9766 20.2793L29.834 24.4336L29.3301 24.8398L29.4941 25.4648L31.2051 31.9707L25.6133 28.2754L25.0684 27.918L24.5215 28.2695L18.9668 31.8398C18.9318 31.8568 18.8933 31.8766 18.8613 31.8906C18.8563 31.8886 18.8507 31.8848 18.8457 31.8828C18.8397 31.8708 18.835 31.8613 18.832 31.8613L18.8301 31.8633L20.5293 25.3633L20.6914 24.7441L20.1992 24.3379L15.0996 20.1387L15.0605 20.1055L21.7227 19.707L22.3672 19.6699L22.5977 19.0645L24.9082 13.002C24.9622 12.964 25.0138 12.9349 25.0508 12.9199Z" fill="url(#paint0_linear_2391_779)"/>
<defs>
<linearGradient id="paint0_linear_2391_779" x1="25" y1="0.0976562" x2="25" y2="49.9023" gradientUnits="userSpaceOnUse">
<stop stop-color="#00B140"/>
<stop offset="1" stop-color="#018531"/>
</linearGradient>
</defs>
</svg>
