<svg width="50" height="50" viewBox="0 0 50 50" fill="none" xmlns="http://www.w3.org/2000/svg">
<path d="M25 0.0976562C23.019 0.0976562 21.229 1.0398 18.752 2.3418C15.561 4.0208 11.1882 6.31836 3.78516 7.94336L3 8.11523V8.91992C3 39.3849 24.3641 49.6002 24.5801 49.6992L25.0215 49.9023L25.4531 49.6816C25.6681 49.5716 47 38.3699 47 8.91992V8.11523L46.2148 7.94336C38.8118 6.31836 34.439 4.0208 31.248 2.3418C28.771 1.0398 26.981 0.0976562 25 0.0976562ZM25.5273 11L26.2832 12.0508C30.1402 12.0508 30.6263 15.6471 29.7363 18.4121C29.9623 18.4781 30.1803 18.8589 30.1113 19.4629C29.9823 20.5879 29.5417 20.8735 29.2617 20.8965C29.2617 22.0865 27.356 23.4046 27 23.5996V25.002C27.854 27.398 34 26.999 34 31.998H16C16 26.999 22.146 27.398 23 25V23.5996C22.642 23.4056 20.7129 22.1389 20.7129 20.8789C20.4339 20.8559 19.9933 20.5684 19.8633 19.4434C19.7933 18.8394 20.0713 18.4986 20.2383 18.3926C19.0113 14.2806 20.2093 11 25.5273 11Z" fill="url(#paint0_linear_2391_775)"/>
<defs>
<linearGradient id="paint0_linear_2391_775" x1="25" y1="0.0976562" x2="25" y2="49.9023" gradientUnits="userSpaceOnUse">
<stop stop-color="#00B140"/>
<stop offset="1" stop-color="#018531"/>
</linearGradient>
</defs>
</svg>
