<svg width="61" height="47" viewBox="0 0 61 47" fill="none" xmlns="http://www.w3.org/2000/svg">
<path d="M25.9836 46.3835H2.30965C1.03406 46.3835 0 45.3632 0 44.1048V2.28326C0 0.183308 2.6348 -0.798833 4.04227 0.776482L27.7162 27.2736C28.088 27.6898 28.2932 28.2256 28.2932 28.7804V44.1048C28.2932 45.3632 27.2591 46.3835 25.9836 46.3835Z" fill="black"/>
<path d="M34.6446 46.3835H58.3185C59.594 46.3835 60.6284 45.3632 60.6284 44.1048V2.28326C60.6284 0.183308 57.9934 -0.798833 56.5859 0.776482L32.912 27.2736C32.5401 27.6898 32.335 28.2256 32.335 28.7804V44.1048C32.335 45.3632 33.3691 46.3835 34.6446 46.3835Z" fill="url(#paint0_linear_2704_5187)"/>
<defs>
<linearGradient id="paint0_linear_2704_5187" x1="50.619" y1="-3.74783" x2="50.619" y2="46.3835" gradientUnits="userSpaceOnUse">
<stop offset="1"/>
</linearGradient>
</defs>
</svg>
