<svg width="230" height="24" viewBox="0 0 230 24" fill="none" xmlns="http://www.w3.org/2000/svg">
<path d="M22.7214 1.55186C20.6687 1.55186 18.9695 3.05732 18.6399 5.03099C18.3103 3.05688 16.6111 1.55186 14.5584 1.55186C12.5057 1.55186 10.8064 3.05732 10.4769 5.03099C10.1473 3.05688 8.44805 1.55186 6.39538 1.55186C4.10714 1.55186 2.25195 3.42125 2.25195 5.72699C2.25195 8.03274 4.10714 9.90212 6.39538 9.90212C8.44805 9.90212 10.1473 8.39667 10.4769 6.42299C10.8064 8.3971 12.5057 9.90212 14.5584 9.90212C16.6111 9.90212 18.3103 8.39667 18.6399 6.42299C18.9695 8.3971 20.6687 9.90212 22.7214 9.90212C25.0096 9.90212 26.8648 8.03274 26.8648 5.72699C26.8648 3.42125 25.0096 1.55186 22.7214 1.55186Z" fill="#00B140"/>
<path d="M22.7214 14.0979C20.6687 14.0979 18.9695 15.6034 18.6399 17.577C18.3103 15.6029 16.6111 14.0979 14.5584 14.0979C12.5057 14.0979 10.8064 15.6034 10.4769 17.577C10.1473 15.6029 8.44805 14.0979 6.39538 14.0979C4.10714 14.0979 2.25195 15.9673 2.25195 18.273C2.25195 20.5788 4.10714 22.4482 6.39538 22.4482C8.44805 22.4482 10.1473 20.9427 10.4769 18.969C10.8064 20.9431 12.5057 22.4482 14.5584 22.4482C16.6111 22.4482 18.3103 20.9427 18.6399 18.969C18.9695 20.9431 20.6687 22.4482 22.7214 22.4482C25.0096 22.4482 26.8648 20.5788 26.8648 18.273C26.8648 15.9673 25.0096 14.0979 22.7214 14.0979Z" fill="#00B140"/>
<path d="M51.2244 6.04342C48.2004 6.04342 45.7402 8.5224 45.7402 11.57C45.7402 14.6175 48.2004 17.0965 51.2244 17.0965C52.7587 17.0965 54.1462 16.4564 55.1426 15.4296V20.8344H56.709V11.57C56.709 8.52284 54.2484 6.04342 51.2244 6.04342ZM51.2244 15.5182C49.0639 15.5182 47.3061 13.747 47.3061 11.57C47.3061 9.39295 49.0639 7.62175 51.2244 7.62175C53.3849 7.62175 55.1426 9.39295 55.1426 11.57C55.1426 13.747 53.3849 15.5182 51.2244 15.5182Z" fill="#00B140"/>
<path d="M75.3767 6.04342C72.3527 6.04342 69.8926 8.5224 69.8926 11.57C69.8926 14.6175 72.3527 17.0965 75.3767 17.0965C76.911 17.0965 78.2985 16.4564 79.295 15.4296V17.0965H80.8613V11.57C80.8613 8.52284 78.4007 6.04342 75.3767 6.04342ZM75.3767 15.5182C73.2162 15.5182 71.4585 13.747 71.4585 11.57C71.4585 9.39295 73.2162 7.62175 75.3767 7.62175C77.5372 7.62175 79.295 9.39295 79.295 11.57C79.295 13.747 77.5372 15.5182 75.3767 15.5182Z" fill="#00B140"/>
<path d="M39.2619 6.04342C36.2379 6.04342 33.7773 8.5224 33.7773 11.57C33.7773 14.6175 36.2379 17.0965 39.2619 17.0965C40.7265 17.0965 42.104 16.5218 43.1399 15.478L43.6938 14.9199L42.5865 13.8037L42.0326 14.3618C41.2925 15.1076 40.3082 15.5182 39.2619 15.5182C37.3695 15.5182 35.7863 14.1593 35.4221 12.3589H44.7461V11.57C44.7461 8.52284 42.2859 6.04342 39.2619 6.04342ZM35.4221 10.7806C35.7863 8.98015 37.3695 7.62131 39.2619 7.62131C41.1544 7.62131 42.7376 8.98015 43.1014 10.7806H35.4221Z" fill="#00B140"/>
<path d="M84.3593 3.16588H82.793V17.0972H84.3593V3.16588Z" fill="#00B140"/>
<path d="M67.2075 11.5706C67.2075 13.7476 65.4498 15.5188 63.2893 15.5188C61.1288 15.5188 59.371 13.7476 59.371 11.5706V6.48785H57.8047V11.5706C57.8047 14.6177 60.2653 17.0972 63.2893 17.0972C66.3133 17.0972 68.7739 14.6182 68.7739 11.5706V6.48785H67.2075V11.5706Z" fill="#00B140"/>
<line x1="96.1094" y1="4" x2="96.1094" y2="20" stroke="#C0C0C0"/>
<mask id="mask0_3765_71" style="mask-type:alpha" maskUnits="userSpaceOnUse" x="104" y="-1" width="24" height="24">
<rect x="104.609" y="-0.25" width="22.858" height="23" fill="#D9D9D9"/>
</mask>
<g mask="url(#mask0_3765_71)">
<path d="M112.086 19.9947C110.435 19.2281 109.094 18.0701 108.062 16.5208C107.03 14.9715 106.514 13.2225 106.514 11.2739C106.514 10.8586 106.534 10.4513 106.574 10.052C106.614 9.65272 106.681 9.2614 106.776 8.87807L105.681 9.52494L104.729 7.87182L109.276 5.2364L111.895 9.78849L110.229 10.7468L108.943 8.49474C108.768 8.92599 108.637 9.37321 108.55 9.8364C108.463 10.2996 108.419 10.7788 108.419 11.2739C108.419 12.8232 108.84 14.2328 109.681 15.5025C110.522 16.7723 111.641 17.7107 113.038 18.3177L112.086 19.9947ZM119.372 8.37494V6.45828H121.967C121.237 5.54786 120.356 4.84109 119.324 4.33796C118.293 3.83484 117.197 3.58328 116.038 3.58328C115.165 3.58328 114.34 3.71904 113.562 3.99057C112.784 4.2621 112.07 4.64543 111.419 5.14057L110.467 3.46349C111.261 2.90446 112.126 2.46522 113.062 2.14578C113.999 1.82633 114.991 1.66661 116.038 1.66661C117.292 1.66661 118.491 1.9022 119.634 2.37338C120.777 2.84456 121.801 3.52737 122.705 4.42182V3.10411H124.61V8.37494H119.372ZM118.753 22.7499L114.205 20.1145L116.824 15.5624L118.467 16.5208L117.11 18.8687C118.983 18.5972 120.543 17.7427 121.789 16.3052C123.035 14.8677 123.658 13.1826 123.658 11.2499C123.658 11.0742 123.654 10.9105 123.646 10.7588C123.638 10.6071 123.618 10.4513 123.586 10.2916H125.515C125.531 10.4513 125.543 10.6071 125.551 10.7588C125.559 10.9105 125.563 11.0742 125.563 11.2499C125.563 13.4062 124.924 15.3348 123.646 17.0359C122.368 18.7369 120.705 19.8829 118.658 20.4739L119.705 21.0968L118.753 22.7499Z" fill="#BAFF29"/>
</g>
<mask id="mask1_3765_71" style="mask-type:alpha" maskUnits="userSpaceOnUse" x="104" y="-1" width="24" height="24">
<rect x="104.609" y="-0.25" width="22.858" height="23" fill="#D9D9D9"/>
</mask>
<g mask="url(#mask1_3765_71)">
<path d="M112.086 19.9948C110.435 19.2281 109.094 18.0702 108.062 16.5208C107.03 14.9715 106.514 13.2226 106.514 11.274C106.514 10.8587 106.534 10.4514 106.574 10.0521C106.614 9.65279 106.681 9.26147 106.776 8.87814L105.681 9.52501L104.729 7.87189L109.276 5.23647L111.895 9.78856L110.229 10.7469L108.943 8.49481C108.768 8.92606 108.637 9.37328 108.55 9.83647C108.463 10.2997 108.419 10.7788 108.419 11.274C108.419 12.8233 108.84 14.2328 109.681 15.5026C110.522 16.7724 111.641 17.7108 113.038 18.3177L112.086 19.9948ZM118.753 22.75L114.205 20.1146L116.824 15.5625L118.467 16.5208L117.11 18.8688C118.983 18.5972 120.543 17.7427 121.789 16.3052C123.035 14.8677 123.658 13.1827 123.658 11.25C123.658 11.0743 123.654 10.9106 123.646 10.7589C123.638 10.6071 123.618 10.4514 123.586 10.2917H125.515C125.531 10.4514 125.543 10.6071 125.551 10.7589C125.559 10.9106 125.563 11.0743 125.563 11.25C125.563 13.4063 124.924 15.3349 123.646 17.036C122.368 18.737 120.705 19.883 118.658 20.474L119.705 21.0969L118.753 22.75Z" fill="#00BB11"/>
</g>
<path d="M133.771 16.25V5.87019H135.1L135.37 7.75932C135.764 6.49298 137.03 5.62108 138.546 5.62108C140.041 5.62108 141.369 6.49298 141.95 7.80084C142.428 6.49298 143.736 5.62108 145.313 5.62108C147.535 5.62108 149.133 7.42716 149.133 9.93908V16.25H147.472V10.0221C147.472 8.44438 146.476 7.32336 145.064 7.32336C143.466 7.32336 142.324 8.63122 142.324 10.4373V16.25H140.684V10.0221C140.684 8.44438 139.667 7.32336 138.255 7.32336C136.615 7.32336 135.432 8.65198 135.432 10.5203V16.25H133.771ZM155.661 16.4991C152.63 16.4991 150.471 14.2363 150.471 11.0601C150.471 7.88387 152.63 5.62108 155.661 5.62108C158.692 5.62108 160.851 7.88387 160.851 11.0601C160.851 14.2363 158.692 16.4991 155.661 16.4991ZM155.661 14.8383C157.675 14.8383 159.107 13.2606 159.107 11.0601C159.107 8.83882 157.675 7.24033 155.661 7.24033C153.647 7.24033 152.215 8.83882 152.215 11.0601C152.215 13.2606 153.647 14.8383 155.661 14.8383ZM162.438 16.25V5.87019H163.85L164.037 7.65552C164.597 6.40994 165.967 5.62108 167.503 5.62108C169.849 5.62108 171.531 7.44792 171.531 9.93908V16.25H169.87V10.1052C169.87 8.44438 168.749 7.28185 167.171 7.28185C165.427 7.28185 164.099 8.67274 164.099 10.6034V16.25H162.438ZM178.002 16.4991C174.992 16.4991 172.853 14.2363 172.853 11.0601C172.853 7.88387 174.929 5.62108 177.836 5.62108C181.012 5.62108 182.963 8.25755 182.714 11.7452H174.701C174.992 13.572 176.279 14.8383 178.043 14.8383C179.455 14.8383 180.576 14.008 180.825 12.8454L182.61 13.4267C182.112 15.2535 180.244 16.4991 178.002 16.4991ZM174.722 10.1259H180.95C180.7 8.38211 179.455 7.24033 177.877 7.24033C176.237 7.24033 175.012 8.42362 174.722 10.1259ZM184.278 18.9072C185.191 18.8242 185.897 18.3675 186.271 17.4125L186.852 15.9178L182.783 5.87019H184.735L187.765 13.8419L190.589 5.87019H192.499L187.931 17.7447C187.288 19.4055 186.146 20.485 184.735 20.651L184.278 18.9072ZM197.729 16.4991C194.698 16.4991 192.539 14.2363 192.539 11.0601C192.539 7.88387 194.698 5.62108 197.729 5.62108C200.76 5.62108 202.919 7.88387 202.919 11.0601C202.919 14.2363 200.76 16.4991 197.729 16.4991ZM197.729 14.8383C199.743 14.8383 201.175 13.2606 201.175 11.0601C201.175 8.83882 199.743 7.24033 197.729 7.24033C195.716 7.24033 194.283 8.83882 194.283 11.0601C194.283 13.2606 195.716 14.8383 197.729 14.8383ZM204.506 16.25V5.87019H205.918L206.105 7.65552C206.665 6.40994 208.035 5.62108 209.572 5.62108C211.917 5.62108 213.599 7.44792 213.599 9.93908V16.25H211.938V10.1052C211.938 8.44438 210.817 7.28185 209.239 7.28185C207.496 7.28185 206.167 8.67274 206.167 10.6034V16.25H204.506ZM220.07 16.4991C217.06 16.4991 214.922 14.2363 214.922 11.0601C214.922 7.88387 216.998 5.62108 219.904 5.62108C223.08 5.62108 225.032 8.25755 224.782 11.7452H216.769C217.06 13.572 218.347 14.8383 220.111 14.8383C221.523 14.8383 222.644 14.008 222.893 12.8454L224.679 13.4267C224.18 15.2535 222.312 16.4991 220.07 16.4991ZM216.79 10.1259H223.018C222.769 8.38211 221.523 7.24033 219.945 7.24033C218.305 7.24033 217.081 8.42362 216.79 10.1259Z" fill="#00BB11"/>
</svg>
