<svg width="140" height="40" viewBox="0 0 140 40" fill="none" xmlns="http://www.w3.org/2000/svg">
  <path d="M10 8H18C19.1046 8 20 8.89543 20 10V30C20 31.1046 19.1046 32 18 32H10C8.89543 32 8 31.1046 8 30V10C8 8.89543 8.89543 8 10 8Z" fill="#4F46E5"/>
  <path d="M26 8H34C35.1046 8 36 8.89543 36 10V30C36 31.1046 35.1046 32 34 32H26C24.8954 32 24 31.1046 24 30V10C24 8.89543 24.8954 8 26 8Z" fill="#4F46E5"/>
  <path d="M42 8H50C51.1046 8 52 8.89543 52 10V30C52 31.1046 51.1046 32 50 32H42C40.8954 32 40 31.1046 40 30V10C40 8.89543 40.8954 8 42 8Z" fill="#4F46E5"/>
  <path d="M58 20C58 14.4772 62.4772 10 68 10H76C81.5228 10 86 14.4772 86 20C86 25.5228 81.5228 30 76 30H68C62.4772 30 58 25.5228 58 20Z" fill="#4F46E5"/>
  <path d="M100.256 29V11.8H105.056L109.184 20.648L113.312 11.8H118.064V29H114.064V17.96L109.184 28.136H109.088L104.256 17.96V29H100.256Z" fill="#4F46E5"/>
  <path d="M127.336 29.304C125.768 29.304 124.44 28.856 123.352 27.96C122.264 27.048 121.72 25.72 121.72 23.976V23.784H125.576V23.928C125.576 25.384 126.152 26.112 127.304 26.112C127.848 26.112 128.264 25.976 128.552 25.704C128.84 25.432 128.984 25.048 128.984 24.552C128.984 24.008 128.8 23.576 128.432 23.256C128.064 22.936 127.4 22.616 126.44 22.296C125.064 21.848 124.024 21.344 123.32 20.784C122.616 20.208 122.264 19.368 122.264 18.264C122.264 17.064 122.696 16.104 123.56 15.384C124.44 14.664 125.608 14.304 127.064 14.304C128.552 14.304 129.752 14.744 130.664 15.624C131.576 16.488 132.032 17.672 132.032 19.176V19.272H128.192V19.208C128.192 18.712 128.056 18.32 127.784 18.04C127.512 17.744 127.128 17.592 126.632 17.592C126.184 17.592 125.832 17.712 125.576 17.944C125.32 18.176 125.192 18.504 125.192 18.92C125.192 19.4 125.368 19.784 125.72 20.072C126.088 20.36 126.744 20.664 127.688 20.984C129.08 21.464 130.128 22 130.832 22.6C131.552 23.184 131.912 24.04 131.912 25.176C131.912 26.44 131.456 27.448 130.544 28.2C129.648 28.936 128.472 29.304 127.336 29.304Z" fill="#4F46E5"/>
</svg> 