<svg width="213" height="25" viewBox="0 0 213 25" fill="none" xmlns="http://www.w3.org/2000/svg">
<path d="M22.7214 2.55188C20.6687 2.55188 18.9695 4.05733 18.6399 6.03101C18.3103 4.0569 16.6111 2.55188 14.5584 2.55188C12.5057 2.55188 10.8064 4.05733 10.4769 6.03101C10.1473 4.0569 8.44805 2.55188 6.39538 2.55188C4.10714 2.55188 2.25195 4.42126 2.25195 6.72701C2.25195 9.03275 4.10714 10.9021 6.39538 10.9021C8.44805 10.9021 10.1473 9.39668 10.4769 7.42301C10.8064 9.39712 12.5057 10.9021 14.5584 10.9021C16.6111 10.9021 18.3103 9.39668 18.6399 7.42301C18.9695 9.39712 20.6687 10.9021 22.7214 10.9021C25.0096 10.9021 26.8648 9.03275 26.8648 6.72701C26.8648 4.42126 25.0096 2.55188 22.7214 2.55188V2.55188Z" fill="#00B140"/>
<path d="M22.7214 15.0979C20.6687 15.0979 18.9695 16.6034 18.6399 18.577C18.3103 16.6029 16.6111 15.0979 14.5584 15.0979C12.5057 15.0979 10.8064 16.6034 10.4769 18.577C10.1473 16.6029 8.44805 15.0979 6.39538 15.0979C4.10714 15.0979 2.25195 16.9673 2.25195 19.273C2.25195 21.5788 4.10714 23.4482 6.39538 23.4482C8.44805 23.4482 10.1473 21.9427 10.4769 19.969C10.8064 21.9431 12.5057 23.4482 14.5584 23.4482C16.6111 23.4482 18.3103 21.9427 18.6399 19.969C18.9695 21.9431 20.6687 23.4482 22.7214 23.4482C25.0096 23.4482 26.8648 21.5788 26.8648 19.273C26.8648 16.9673 25.0096 15.0979 22.7214 15.0979V15.0979Z" fill="#00B140"/>
<path d="M51.2244 7.04343C48.2004 7.04343 45.7402 9.52241 45.7402 12.57C45.7402 15.6175 48.2004 18.0965 51.2244 18.0965C52.7587 18.0965 54.1462 17.4564 55.1426 16.4296V21.8344H56.709V12.57C56.709 9.52285 54.2484 7.04343 51.2244 7.04343V7.04343ZM51.2244 16.5182C49.0639 16.5182 47.3061 14.747 47.3061 12.57C47.3061 10.393 49.0639 8.62175 51.2244 8.62175C53.3849 8.62175 55.1426 10.393 55.1426 12.57C55.1426 14.747 53.3849 16.5182 51.2244 16.5182Z" fill="#00B140"/>
<path d="M75.3767 7.04343C72.3527 7.04343 69.8926 9.52241 69.8926 12.57C69.8926 15.6175 72.3527 18.0965 75.3767 18.0965C76.911 18.0965 78.2985 17.4564 79.295 16.4296V18.0965H80.8613V12.57C80.8613 9.52285 78.4007 7.04343 75.3767 7.04343V7.04343ZM75.3767 16.5182C73.2162 16.5182 71.4585 14.747 71.4585 12.57C71.4585 10.393 73.2162 8.62175 75.3767 8.62175C77.5372 8.62175 79.295 10.393 79.295 12.57C79.295 14.747 77.5372 16.5182 75.3767 16.5182Z" fill="#00B140"/>
<path d="M39.2619 7.04343C36.2379 7.04343 33.7773 9.52241 33.7773 12.57C33.7773 15.6175 36.2379 18.0965 39.2619 18.0965C40.7265 18.0965 42.104 17.5218 43.1399 16.478L43.6938 15.9199L42.5865 14.8037L42.0326 15.3618C41.2925 16.1076 40.3082 16.5182 39.2619 16.5182C37.3695 16.5182 35.7863 15.1594 35.4221 13.3589H44.7461V12.57C44.7461 9.52285 42.2859 7.04343 39.2619 7.04343V7.04343ZM35.4221 11.7806C35.7863 9.98015 37.3695 8.62132 39.2619 8.62132C41.1544 8.62132 42.7376 9.98015 43.1014 11.7806H35.4221V11.7806Z" fill="#00B140"/>
<path d="M84.3593 4.16586H82.793V18.0972H84.3593V4.16586Z" fill="#00B140"/>
<path d="M67.2075 12.5706C67.2075 14.7476 65.4498 16.5188 63.2893 16.5188C61.1288 16.5188 59.371 14.7476 59.371 12.5706V7.48785H57.8047V12.5706C57.8047 15.6177 60.2653 18.0972 63.2893 18.0972C66.3133 18.0972 68.7739 15.6182 68.7739 12.5706V7.48785H67.2075V12.5706V12.5706Z" fill="#00B140"/>
<path d="M96.6094 7L96.6094 19" stroke="#E7E7E7" stroke-linecap="round"/>
<mask id="mask0_3662_162" style="mask-type:alpha" maskUnits="userSpaceOnUse" x="104" y="2" width="20" height="20">
<rect x="104.002" y="2.17401" width="19.7036" height="19.826" fill="#D9D9D9"/>
</mask>
<g mask="url(#mask0_3662_162)">
<path d="M110.446 19.625C109.023 18.9641 107.866 17.9659 106.977 16.6304C106.088 15.2949 105.643 13.7873 105.643 12.1076C105.643 11.7497 105.66 11.3986 105.694 11.0544C105.728 10.7102 105.787 10.3728 105.869 10.0424L104.924 10.6L104.104 9.17503L108.024 6.9033L110.281 10.8272L108.845 11.6533L107.736 9.71198C107.586 10.0837 107.473 10.4692 107.398 10.8685C107.322 11.2678 107.285 11.6808 107.285 12.1076C107.285 13.4431 107.647 14.6581 108.373 15.7527C109.098 16.8473 110.062 17.6561 111.267 18.1793L110.446 19.625ZM116.726 9.60872V7.95655H118.963C118.334 7.17178 117.574 6.56254 116.685 6.12885C115.796 5.69515 114.852 5.47831 113.853 5.47831C113.1 5.47831 112.389 5.59533 111.718 5.82939C111.048 6.06345 110.432 6.39388 109.871 6.82069L109.05 5.37505C109.734 4.89316 110.48 4.51454 111.287 4.23918C112.094 3.96382 112.95 3.82614 113.853 3.82614C114.934 3.82614 115.967 4.02922 116.952 4.43538C117.937 4.84153 118.82 5.43012 119.6 6.20113V5.06527H121.242V9.60872H116.726ZM116.192 22L112.272 19.7282L114.53 15.8043L115.946 16.6304L114.776 18.6543C116.391 18.4203 117.735 17.6837 118.809 16.4446C119.884 15.2054 120.421 13.7529 120.421 12.087C120.421 11.9355 120.417 11.7944 120.41 11.6636C120.403 11.5328 120.386 11.3986 120.359 11.2609H122.021C122.035 11.3986 122.045 11.5328 122.052 11.6636C122.059 11.7944 122.063 11.9355 122.063 12.087C122.063 13.9457 121.512 15.6081 120.41 17.0744C119.309 18.5407 117.876 19.5286 116.11 20.038L117.013 20.575L116.192 22Z" fill="#BAFF29"/>
</g>
<path d="M128.972 17.0001V7.60881H130.174L130.418 9.31801C130.775 8.17228 131.921 7.38342 133.292 7.38342C134.644 7.38342 135.846 8.17228 136.372 9.35558C136.804 8.17228 137.988 7.38342 139.415 7.38342C141.425 7.38342 142.871 9.01749 142.871 11.2902V17.0001H141.368V11.3653C141.368 9.93784 140.467 8.92358 139.19 8.92358C137.743 8.92358 136.71 10.1069 136.71 11.741V17.0001H135.227V11.3653C135.227 9.93784 134.306 8.92358 133.029 8.92358C131.545 8.92358 130.475 10.1257 130.475 11.8161V17.0001H128.972ZM148.777 17.2255C146.035 17.2255 144.081 15.1782 144.081 12.3044C144.081 9.43071 146.035 7.38342 148.777 7.38342C151.519 7.38342 153.473 9.43071 153.473 12.3044C153.473 15.1782 151.519 17.2255 148.777 17.2255ZM148.777 15.7229C150.599 15.7229 151.895 14.2954 151.895 12.3044C151.895 10.2947 150.599 8.84845 148.777 8.84845C146.955 8.84845 145.659 10.2947 145.659 12.3044C145.659 14.2954 146.955 15.7229 148.777 15.7229ZM154.909 17.0001V7.60881H156.186L156.355 9.2241C156.862 8.09715 158.102 7.38342 159.492 7.38342C161.614 7.38342 163.135 9.03628 163.135 11.2902V17.0001H161.633V11.4404C161.633 9.93784 160.619 8.88602 159.191 8.88602C157.613 8.88602 156.411 10.1444 156.411 11.8912V17.0001H154.909ZM168.99 17.2255C166.267 17.2255 164.332 15.1782 164.332 12.3044C164.332 9.43071 166.21 7.38342 168.84 7.38342C171.714 7.38342 173.479 9.76879 173.254 12.9243H166.004C166.267 14.5771 167.431 15.7229 169.028 15.7229C170.305 15.7229 171.319 14.9715 171.545 13.9197L173.16 14.4456C172.709 16.0985 171.019 17.2255 168.99 17.2255ZM166.023 11.4592H171.657C171.432 9.88149 170.305 8.84845 168.877 8.84845C167.394 8.84845 166.285 9.91905 166.023 11.4592ZM174.669 19.4042C175.495 19.3291 176.134 18.9159 176.472 18.0519L176.998 16.6995L173.316 7.60881H175.082L177.824 14.8213L180.378 7.60881H182.106L177.974 18.3524C177.392 19.855 176.359 20.8317 175.082 20.982L174.669 19.4042ZM186.839 17.2255C184.097 17.2255 182.143 15.1782 182.143 12.3044C182.143 9.43071 184.097 7.38342 186.839 7.38342C189.581 7.38342 191.534 9.43071 191.534 12.3044C191.534 15.1782 189.581 17.2255 186.839 17.2255ZM186.839 15.7229C188.661 15.7229 189.957 14.2954 189.957 12.3044C189.957 10.2947 188.661 8.84845 186.839 8.84845C185.017 8.84845 183.721 10.2947 183.721 12.3044C183.721 14.2954 185.017 15.7229 186.839 15.7229ZM192.97 17.0001V7.60881H194.248L194.417 9.2241C194.924 8.09715 196.163 7.38342 197.553 7.38342C199.676 7.38342 201.197 9.03628 201.197 11.2902V17.0001H199.695V11.4404C199.695 9.93784 198.68 8.88602 197.253 8.88602C195.675 8.88602 194.473 10.1444 194.473 11.8912V17.0001H192.97ZM207.052 17.2255C204.328 17.2255 202.394 15.1782 202.394 12.3044C202.394 9.43071 204.272 7.38342 206.902 7.38342C209.775 7.38342 211.541 9.76879 211.316 12.9243H204.065C204.328 14.5771 205.493 15.7229 207.089 15.7229C208.367 15.7229 209.381 14.9715 209.606 13.9197L211.222 14.4456C210.771 16.0985 209.08 17.2255 207.052 17.2255ZM204.084 11.4592H209.719C209.494 9.88149 208.367 8.84845 206.939 8.84845C205.455 8.84845 204.347 9.91905 204.084 11.4592Z" fill="#00BB11"/>
<mask id="mask1_3662_162" style="mask-type:alpha" maskUnits="userSpaceOnUse" x="104" y="2" width="20" height="20">
<rect x="104.002" y="2.17401" width="19.7036" height="19.826" fill="#D9D9D9"/>
</mask>
<g mask="url(#mask1_3662_162)">
<path d="M110.446 19.625C109.023 18.9642 107.866 17.966 106.977 16.6305C106.088 15.295 105.643 13.7874 105.643 12.1077C105.643 11.7497 105.66 11.3986 105.694 11.0544C105.728 10.7102 105.787 10.3729 105.869 10.0425L104.924 10.6001L104.104 9.17508L108.024 6.90335L110.281 10.8272L108.845 11.6533L107.736 9.71203C107.586 10.0838 107.473 10.4693 107.398 10.8685C107.322 11.2678 107.285 11.6809 107.285 12.1077C107.285 13.4432 107.647 14.6582 108.373 15.7528C109.098 16.8473 110.062 17.6562 111.267 18.1794L110.446 19.625ZM116.192 22L112.272 19.7283L114.53 15.8044L115.946 16.6305L114.776 18.6544C116.391 18.4203 117.735 17.6837 118.809 16.4446C119.883 15.2055 120.421 13.753 120.421 12.087C120.421 11.9356 120.417 11.7944 120.41 11.6637C120.403 11.5329 120.386 11.3986 120.359 11.2609H122.021C122.035 11.3986 122.045 11.5329 122.052 11.6637C122.059 11.7944 122.063 11.9356 122.063 12.087C122.063 13.9457 121.512 15.6082 120.41 17.0745C119.309 18.5408 117.876 19.5286 116.11 20.0381L117.013 20.575L116.192 22Z" fill="#00BB11"/>
</g>
</svg>
