<svg width="89" height="21" viewBox="0 0 89 21" fill="none" xmlns="http://www.w3.org/2000/svg">
<mask id="mask0_2781_4287" style="mask-type:alpha" maskUnits="userSpaceOnUse" x="0" y="2" width="17" height="17">
<rect y="2" width="16.5436" height="16.6463" fill="#D9D9D9"/>
</mask>
<g mask="url(#mask0_2781_4287)">
<path d="M5.40992 16.6522C4.21511 16.0973 3.24432 15.2592 2.49756 14.1379C1.75081 13.0166 1.37743 11.7508 1.37743 10.3405C1.37743 10.0399 1.39179 9.74512 1.42051 9.45613C1.44923 9.16713 1.49806 8.88391 1.56699 8.60647L0.774276 9.07465L0.0849609 7.87819L3.37644 5.9708L5.27206 9.26539L4.06576 9.95898L3.13518 8.32903C3.00881 8.64115 2.91403 8.96483 2.85084 9.30007C2.78765 9.63531 2.75606 9.9821 2.75606 10.3405C2.75606 11.4618 3.06051 12.4819 3.6694 13.401C4.2783 14.32 5.08824 14.9991 6.09924 15.4384L5.40992 16.6522ZM10.6832 8.24233V6.85514H12.5616C12.0331 6.19622 11.3955 5.68469 10.6487 5.32055C9.90196 4.95642 9.10925 4.77435 8.27058 4.77435C7.63871 4.77435 7.0413 4.87261 6.47836 5.06913C5.91542 5.26565 5.39843 5.54308 4.9274 5.90144L4.23809 4.68765C4.81252 4.28305 5.43864 3.96515 6.11647 3.73395C6.7943 3.50275 7.51233 3.38715 8.27058 3.38715C9.17818 3.38715 10.0456 3.55766 10.8727 3.89868C11.6999 4.2397 12.4409 4.73389 13.0958 5.38124V4.42755H14.4744V8.24233H10.6832ZM10.2351 18.6463L6.94365 16.7389L8.83927 13.4443L10.0283 14.1379L9.04606 15.8372C10.4017 15.6407 11.5305 15.0222 12.4323 13.9818C13.3342 12.9415 13.7851 11.7219 13.7851 10.3231C13.7851 10.196 13.7822 10.0775 13.7765 9.96765C13.7707 9.85783 13.7564 9.74512 13.7334 9.62953H15.1293C15.1408 9.74512 15.1494 9.85783 15.1551 9.96765C15.1609 10.0775 15.1637 10.196 15.1637 10.3231C15.1637 11.8837 14.7013 13.2796 13.7765 14.5107C12.8517 15.7418 11.6482 16.5713 10.1662 16.999L10.9244 17.4498L10.2351 18.6463Z" fill="#BAFF29"/>
</g>
<path d="M18.8075 14.3728V6.48769H19.8168L20.0218 7.92278C20.3214 6.9608 21.2834 6.29845 22.4346 6.29845C23.5701 6.29845 24.5794 6.9608 25.021 7.95432C25.3837 6.9608 26.3772 6.29845 27.5757 6.29845C29.2631 6.29845 30.4774 7.67045 30.4774 9.57865V14.3728H29.2158V9.64173C29.2158 8.44319 28.4589 7.5916 27.3865 7.5916C26.1722 7.5916 25.3048 8.58513 25.3048 9.95713V14.3728H24.059V9.64173C24.059 8.44319 23.2862 7.5916 22.2139 7.5916C20.968 7.5916 20.0691 8.6009 20.0691 10.0202V14.3728H18.8075ZM35.4363 14.562C33.1339 14.562 31.4938 12.8431 31.4938 10.4302C31.4938 8.0174 33.1339 6.29845 35.4363 6.29845C37.7388 6.29845 39.3789 8.0174 39.3789 10.4302C39.3789 12.8431 37.7388 14.562 35.4363 14.562ZM35.4363 13.3004C36.966 13.3004 38.0542 12.1019 38.0542 10.4302C38.0542 8.74283 36.966 7.52852 35.4363 7.52852C33.9066 7.52852 32.8185 8.74283 32.8185 10.4302C32.8185 12.1019 33.9066 13.3004 35.4363 13.3004ZM40.5845 14.3728V6.48769H41.6569L41.7988 7.84393C42.2246 6.89771 43.2655 6.29845 44.4325 6.29845C46.2145 6.29845 47.4919 7.68622 47.4919 9.57865V14.3728H46.2303V9.70481C46.2303 8.44319 45.3787 7.56006 44.1802 7.56006C42.8555 7.56006 41.8462 8.61667 41.8462 10.0833V14.3728H40.5845ZM52.4076 14.562C50.121 14.562 48.4966 12.8431 48.4966 10.4302C48.4966 8.0174 50.0736 6.29845 52.2815 6.29845C54.6943 6.29845 56.1767 8.30126 55.9875 10.9507H49.9002C50.121 12.3384 51.0987 13.3004 52.4392 13.3004C53.5116 13.3004 54.3631 12.6696 54.5524 11.7865L55.9086 12.228C55.5301 13.6158 54.1108 14.562 52.4076 14.562ZM49.9159 9.72058H54.647C54.4578 8.39588 53.5116 7.52852 52.313 7.52852C51.0672 7.52852 50.1367 8.42742 49.9159 9.72058ZM57.1753 16.3914C57.8692 16.3283 58.4054 15.9814 58.6892 15.2559L59.1308 14.1205L56.0398 6.48769H57.5222L59.8247 12.5434L61.9694 6.48769H63.4203L59.9508 15.5082C59.462 16.7699 58.5946 17.5899 57.5222 17.7161L57.1753 16.3914ZM67.3938 14.562C65.0913 14.562 63.4512 12.8431 63.4512 10.4302C63.4512 8.0174 65.0913 6.29845 67.3938 6.29845C69.6962 6.29845 71.3363 8.0174 71.3363 10.4302C71.3363 12.8431 69.6962 14.562 67.3938 14.562ZM67.3938 13.3004C68.9235 13.3004 70.0116 12.1019 70.0116 10.4302C70.0116 8.74283 68.9235 7.52852 67.3938 7.52852C65.8641 7.52852 64.7759 8.74283 64.7759 10.4302C64.7759 12.1019 65.8641 13.3004 67.3938 13.3004ZM72.542 14.3728V6.48769H73.6144L73.7563 7.84393C74.1821 6.89771 75.2229 6.29845 76.3899 6.29845C78.172 6.29845 79.4493 7.68622 79.4493 9.57865V14.3728H78.1877V9.70481C78.1877 8.44319 77.3361 7.56006 76.1376 7.56006C74.8129 7.56006 73.8036 8.61667 73.8036 10.0833V14.3728H72.542ZM84.3651 14.562C82.0784 14.562 80.4541 12.8431 80.4541 10.4302C80.4541 8.0174 82.0311 6.29845 84.2389 6.29845C86.6518 6.29845 88.1342 8.30126 87.9449 10.9507H81.8576C82.0784 12.3384 83.0562 13.3004 84.3966 13.3004C85.469 13.3004 86.3206 12.6696 86.5098 11.7865L87.8661 12.228C87.4876 13.6158 86.0683 14.562 84.3651 14.562ZM81.8734 9.72058H86.6045C86.4152 8.39588 85.469 7.52852 84.2705 7.52852C83.0246 7.52852 82.0942 8.42742 81.8734 9.72058Z" fill="#00BB11"/>
<mask id="mask1_2781_4287" style="mask-type:alpha" maskUnits="userSpaceOnUse" x="0" y="2" width="17" height="17">
<rect y="2" width="16.5436" height="16.6463" fill="#D9D9D9"/>
</mask>
<g mask="url(#mask1_2781_4287)">
<path d="M5.40992 16.6522C4.21511 16.0974 3.24432 15.2593 2.49756 14.138C1.75081 13.0166 1.37743 11.7508 1.37743 10.3405C1.37743 10.04 1.39179 9.74518 1.42051 9.45618C1.44923 9.16718 1.49806 8.88396 1.56699 8.60652L0.774276 9.0747L0.0849609 7.87824L3.37644 5.97085L5.27206 9.26544L4.06576 9.95903L3.13518 8.32908C3.00881 8.6412 2.91403 8.96488 2.85084 9.30012C2.78765 9.63536 2.75606 9.98215 2.75606 10.3405C2.75606 11.4618 3.06051 12.482 3.6694 13.401C4.2783 14.32 5.08824 14.9992 6.09924 15.4384L5.40992 16.6522ZM10.2351 18.6463L6.94365 16.7389L8.83927 13.4444L10.0283 14.138L9.04606 15.8373C10.4017 15.6407 11.5305 15.0223 12.4323 13.9819C13.3342 12.9415 13.7851 11.7219 13.7851 10.3232C13.7851 10.196 13.7822 10.0775 13.7765 9.9677C13.7707 9.85788 13.7564 9.74518 13.7334 9.62958H15.1293C15.1408 9.74518 15.1494 9.85788 15.1551 9.9677C15.1609 10.0775 15.1637 10.196 15.1637 10.3232C15.1637 11.8838 14.7013 13.2796 13.7765 14.5108C12.8517 15.7419 11.6482 16.5713 10.1662 16.999L10.9244 17.4499L10.2351 18.6463Z" fill="#00BB11"/>
</g>
</svg>
