<svg width="89" height="21" viewBox="0 0 89 21" fill="none" xmlns="http://www.w3.org/2000/svg">
<path d="M19.7959 17.1836C17.5618 17.1836 15.9704 15.5004 15.9704 13.1745C15.9704 10.8486 17.5618 9.16533 19.7959 9.16533C22.03 9.16533 23.6215 10.8486 23.6215 13.1745C23.6215 15.5004 22.03 17.1836 19.7959 17.1836ZM19.7959 15.9748C21.2649 15.9748 22.3514 14.7659 22.3514 13.1745C22.3514 11.5678 21.2649 10.3436 19.7959 10.3436C18.3269 10.3436 17.2405 11.5678 17.2405 13.1745C17.2405 14.7659 18.3269 15.9748 19.7959 15.9748ZM28.6417 9.16533C30.3556 9.16533 31.6103 10.5119 31.6103 12.3482V17H30.3862V12.4094C30.3862 11.2464 29.6211 10.3895 28.5193 10.3895C27.1115 10.3895 26.1628 11.43 26.1322 12.8378V17H24.908V9.34896H25.9486L26.0557 10.6649C26.4229 9.73151 27.4635 9.16533 28.6417 9.16533ZM39.8968 14.8577C39.5907 16.2043 38.1523 17.1836 36.5609 17.1836C34.4186 17.1836 32.8272 15.5004 32.8272 13.1745C32.8272 10.8486 34.388 9.16533 36.4997 9.16533C38.5808 9.16533 40.0345 10.818 40.0345 13.1133C40.0345 13.2816 40.0345 13.4805 40.0192 13.6488H34.1738C34.2656 15.026 35.2143 16.0054 36.4997 16.0054C37.6015 16.0054 38.4584 15.3474 38.5808 14.368L39.8968 14.8577ZM34.1585 12.4706H38.7797C38.7185 11.2158 37.7086 10.313 36.4844 10.313C35.2603 10.313 34.2503 11.2158 34.1585 12.4706ZM50.0555 9.16533C51.6163 9.16533 52.7027 10.4507 52.7027 12.2258V17H51.4939V12.3482C51.4939 11.1852 50.79 10.3895 49.7494 10.3895C48.5559 10.3895 47.653 11.43 47.6224 12.899V17H46.3983V12.4094C46.3983 11.277 45.6791 10.3895 44.6385 10.3895C43.3837 10.3895 42.5115 11.43 42.4809 12.899V17H41.2568V9.34896H42.2973L42.4044 10.6955C42.787 9.79272 43.7357 9.16533 44.8834 9.16533C46.031 9.16533 46.9338 9.85393 47.3623 10.8792C47.6836 9.86923 48.7854 9.16533 50.0555 9.16533ZM57.7535 17.1836C55.5194 17.1836 53.928 15.5004 53.928 13.1745C53.928 10.8486 55.5194 9.16533 57.7535 9.16533C59.9876 9.16533 61.579 10.8486 61.579 13.1745C61.579 15.5004 59.9876 17.1836 57.7535 17.1836ZM57.7535 15.9748C59.2225 15.9748 60.3089 14.7659 60.3089 13.1745C60.3089 11.5678 59.2225 10.3436 57.7535 10.3436C56.2845 10.3436 55.198 11.5678 55.198 13.1745C55.198 14.7659 56.2845 15.9748 57.7535 15.9748ZM66.5993 9.16533C68.3131 9.16533 69.5679 10.5119 69.5679 12.3482V17H68.3437V12.4094C68.3437 11.2464 67.5786 10.3895 66.4769 10.3895C65.0691 10.3895 64.1203 11.43 64.0897 12.8378V17H62.8656V9.34896H63.9061L64.0132 10.6649C64.3805 9.73151 65.421 9.16533 66.5993 9.16533ZM77.8543 14.8577C77.5483 16.2043 76.1099 17.1836 74.5185 17.1836C72.3762 17.1836 70.7848 15.5004 70.7848 13.1745C70.7848 10.8486 72.3456 9.16533 74.4573 9.16533C76.5383 9.16533 77.992 10.818 77.992 13.1133C77.992 13.2816 77.992 13.4805 77.9767 13.6488H72.1313C72.2232 15.026 73.1719 16.0054 74.4573 16.0054C75.559 16.0054 76.4159 15.3474 76.5383 14.368L77.8543 14.8577ZM72.116 12.4706H76.7373C76.6761 11.2158 75.6661 10.313 74.442 10.313C73.2178 10.313 72.2078 11.2158 72.116 12.4706ZM78.3574 9.34896H79.7958L82.0911 15.225H82.1217L84.3558 9.34896H85.7636L82.2135 17.9793C81.7391 19.1423 80.8363 20.0298 79.7958 20.2134L79.4897 19.0505C80.2242 18.8669 80.6527 18.469 80.8975 17.9181L81.4484 16.694L78.3574 9.34896Z" fill="#00B140"/>
<path d="M5.53095 18.1506C6.08947 18.1506 6.61743 18.0405 7.11572 17.8222C7.61378 17.6031 8.05183 17.302 8.42942 16.9184C8.80723 16.5357 9.1082 16.0895 9.33276 15.5803C9.55688 15.0716 9.66938 14.5268 9.66938 13.9462C9.66938 13.3664 9.56285 12.8214 9.34915 12.3125C9.13566 11.8031 8.84267 11.3597 8.47039 10.9826C8.09812 10.6046 7.66582 10.3062 7.1733 10.0872C6.68055 9.8682 6.15502 9.75858 5.59672 9.75858C5.03842 9.75858 4.50713 9.8682 4.00375 10.0872C3.50015 10.3062 3.05369 10.6046 2.66547 10.9826C2.27658 11.3597 1.97008 11.8031 1.74574 12.3125C1.5214 12.8214 1.4089 13.3664 1.4089 13.9462C1.4089 14.5268 1.51852 15.0716 1.73755 15.5803C1.95635 16.0895 2.25466 16.5357 2.63269 16.9184C3.01028 17.302 3.44811 17.6058 3.9464 17.8306C4.44446 18.0545 4.97264 18.1668 5.53095 18.1668V18.1506ZM5.51544 8.49514C6.28878 8.49514 7.01185 8.64087 7.68509 8.93186C8.35789 9.22375 8.94321 9.61839 9.44149 10.116C9.93912 10.6145 10.3315 11.1947 10.6177 11.8569C10.9038 12.5191 11.0469 13.2269 11.0469 13.9785C11.0469 14.7313 10.9038 15.4384 10.6177 16.1003C10.3315 16.7629 9.93912 17.3405 9.44149 17.833C8.94321 18.3256 8.35789 18.7153 7.68509 19.0012C7.01185 19.2874 6.28878 19.4304 5.51544 19.4304C4.74188 19.4304 4.01859 19.2874 3.34579 19.0012C2.67278 18.7153 2.09011 18.3233 1.59736 17.8251C1.10461 17.3272 0.715287 16.7472 0.428939 16.0846C0.143033 15.4231 -3.05176e-05 14.7155 -3.05176e-05 13.9628C-3.05176e-05 13.2105 0.143033 12.5034 0.428939 11.841C0.715287 11.1786 1.10705 10.5988 1.60534 10.1001C2.10318 9.60245 2.68606 9.21024 3.35377 8.92411C4.02125 8.63821 4.74188 8.49514 5.51544 8.49514Z" fill="#00B140"/>
<path d="M3.60112 18.131C3.60112 18.131 2.55384 7.81225 9.77589 1.56662L7.49506 1.00012C7.49506 1.00012 1.76057 6.12162 2.32618 17.0538L3.60112 18.131Z" fill="#00B140"/>
<path d="M5.50057 18.5859C5.50057 18.5859 5.15045 8.65071 14.677 1.70638L12.46 1.12017C12.46 1.12017 4.38331 7.15541 4.20658 18.0034L5.50057 18.5859Z" fill="#BAFF29"/>
<path d="M7.62056 18.2626C7.62056 18.2626 9.16458 8.7385 19.8456 2.84832L17.573 1.93989C17.573 1.93989 7.89606 6.85232 6.28117 18.1211L7.62056 18.2626Z" fill="#00B140"/>
<path d="M9.57259 14.8376C9.51678 15.0929 9.43816 15.3407 9.33253 15.5803C9.10819 16.0895 8.807 16.5357 8.42919 16.9184C8.05182 17.302 7.61377 17.6031 7.11571 17.8222C6.6172 18.0405 6.20307 18.1477 5.53094 18.1506C5.53094 18.1506 4.60833 18.1293 3.94639 17.8306C3.44832 17.6054 3.01005 17.302 2.63246 16.9184C2.25465 16.5357 1.95634 16.0895 1.73754 15.5803C1.63434 15.3407 1.55771 15.0929 1.50301 14.8376H0.0741501C0.142803 15.269 0.256855 15.6862 0.42893 16.0846C0.715057 16.7472 1.10461 17.3272 1.59736 17.8251C2.0901 18.3233 2.67255 18.7153 3.34556 19.0012C4.01836 19.2874 4.74165 19.4304 5.51521 19.4304C6.28855 19.4304 7.01184 19.2874 7.68508 19.0012C8.35766 18.7153 8.94298 18.3256 9.44149 17.833C9.93911 17.3405 10.3313 16.7629 10.6174 16.1003C10.7917 15.6968 10.9064 15.2747 10.9747 14.8376H9.57259Z" fill="#00B140"/>
</svg>
