<svg width="383" height="49" viewBox="0 0 383 49" fill="none" xmlns="http://www.w3.org/2000/svg">
<path d="M38.5394 10.7442C35.0581 10.7442 32.176 13.2975 31.6171 16.6449C31.0582 13.2967 28.1761 10.7442 24.6948 10.7442C21.2134 10.7442 18.3314 13.2975 17.7724 16.6449C17.2135 13.2967 14.3315 10.7442 10.8501 10.7442C6.9692 10.7442 3.82275 13.9147 3.82275 17.8253C3.82275 21.7359 6.9692 24.9064 10.8501 24.9064C14.3315 24.9064 17.2135 22.3531 17.7724 19.0057C18.3314 22.3539 21.2134 24.9064 24.6948 24.9064C28.1761 24.9064 31.0582 22.3531 31.6171 19.0057C32.176 22.3539 35.0581 24.9064 38.5394 24.9064C42.4203 24.9064 45.5668 21.7359 45.5668 17.8253C45.5668 13.9147 42.4203 10.7442 38.5394 10.7442V10.7442Z" fill="#00B140"/>
<path d="M38.5394 32.0236C35.0581 32.0236 32.176 34.5769 31.6171 37.9243C31.0582 34.5762 28.1761 32.0236 24.6948 32.0236C21.2134 32.0236 18.3314 34.5769 17.7724 37.9243C17.2135 34.5762 14.3315 32.0236 10.8501 32.0236C6.9692 32.0236 3.82275 35.1941 3.82275 39.1047C3.82275 43.0153 6.9692 46.1858 10.8501 46.1858C14.3315 46.1858 17.2135 43.6326 17.7724 40.2852C18.3314 43.6333 21.2134 46.1858 24.6948 46.1858C28.1761 46.1858 31.0582 43.6326 31.6171 40.2852C32.176 43.6333 35.0581 46.1858 38.5394 46.1858C42.4203 46.1858 45.5668 43.0153 45.5668 39.1047C45.5668 35.1941 42.4203 32.0236 38.5394 32.0236V32.0236Z" fill="#00B140"/>
<path d="M86.8871 18.3631C81.7584 18.3631 77.5859 22.5675 77.5859 27.7362C77.5859 32.905 81.7584 37.1094 86.8871 37.1094C89.4893 37.1094 91.8426 36.0237 93.5326 34.2823V43.4489H96.1891V27.7362C96.1891 22.5682 92.0159 18.3631 86.8871 18.3631V18.3631ZM86.8871 34.4325C83.2229 34.4325 80.2417 31.4285 80.2417 27.7362C80.2417 24.044 83.2229 21.04 86.8871 21.04C90.5514 21.04 93.5326 24.044 93.5326 27.7362C93.5326 31.4285 90.5514 34.4325 86.8871 34.4325Z" fill="#00B140"/>
<path d="M127.844 18.3631C122.716 18.3631 118.543 22.5675 118.543 27.7362C118.543 32.905 122.716 37.1094 127.844 37.1094C130.446 37.1094 132.8 36.0237 134.49 34.2823V37.1094H137.146V27.7362C137.146 22.5682 132.973 18.3631 127.844 18.3631V18.3631ZM127.844 34.4325C124.18 34.4325 121.199 31.4285 121.199 27.7362C121.199 24.044 124.18 21.04 127.844 21.04C131.509 21.04 134.49 24.044 134.49 27.7362C134.49 31.4285 131.509 34.4325 127.844 34.4325Z" fill="#00B140"/>
<path d="M66.5917 18.3631C61.463 18.3631 57.2897 22.5675 57.2897 27.7362C57.2897 32.905 61.463 37.1094 66.5917 37.1094C69.0757 37.1094 71.412 36.1347 73.1689 34.3644L74.1082 33.4179L72.2302 31.5247L71.2908 32.4713C70.0356 33.7361 68.3662 34.4325 66.5917 34.4325C63.3821 34.4325 60.6969 32.1279 60.0792 29.0743H75.893V27.7362C75.893 22.5682 71.7205 18.3631 66.5917 18.3631V18.3631ZM60.0792 26.3974C60.6969 23.3439 63.3821 21.0392 66.5917 21.0392C69.8013 21.0392 72.4865 23.3439 73.1035 26.3974H60.0792V26.3974Z" fill="#00B140"/>
<path d="M143.078 13.482H140.421V37.1099H143.078V13.482Z" fill="#00B140"/>
<path d="M113.991 27.7362C113.991 31.4285 111.01 34.4325 107.345 34.4325C103.681 34.4325 100.7 31.4285 100.7 27.7362V19.1157H98.0435V27.7362C98.0435 32.9042 102.217 37.1093 107.345 37.1093C112.474 37.1093 116.647 32.9049 116.647 27.7362V19.1157H113.991V27.7362V27.7362Z" fill="#00B140"/>
<path d="M223.51 37.432C218.29 37.432 214.51 33.472 214.51 28C214.51 22.528 218.29 18.568 223.51 18.568C228.73 18.568 232.51 22.528 232.51 28C232.51 33.472 228.73 37.432 223.51 37.432ZM217.534 28C217.534 31.816 220.054 34.552 223.51 34.552C226.966 34.552 229.486 31.816 229.486 28C229.486 24.148 226.966 21.376 223.51 21.376C220.054 21.376 217.534 24.148 217.534 28ZM248.006 26.272C248.006 23.464 246.17 21.448 243.47 21.448C240.482 21.448 237.998 23.932 237.998 27.352V37H235.118V19H237.566L237.962 22.312C238.898 20.08 241.022 18.568 243.902 18.568C247.97 18.568 250.886 21.7 250.886 26.056V37H248.006V26.272ZM261.967 37.432C256.783 37.432 253.183 33.508 253.183 28.072C253.183 22.564 256.783 18.568 261.823 18.568C267.007 18.568 270.319 22.744 270.319 28.504C270.319 28.648 270.319 28.828 270.283 29.116H256.351C256.783 32.32 259.015 34.552 261.967 34.552C264.343 34.552 266.503 33.04 266.935 30.952L270.175 31.96C269.383 35.128 265.999 37.432 261.967 37.432ZM256.423 26.308H267.223C266.647 23.14 264.271 21.376 261.679 21.376C259.015 21.376 256.963 23.356 256.423 26.308ZM296.673 26.2C296.673 23.428 295.053 21.52 292.641 21.52C289.905 21.52 287.745 24.004 287.745 27.424V37H284.901V26.344C284.901 23.536 283.281 21.52 280.761 21.52C277.989 21.52 275.793 24.004 275.793 27.424V37H272.913V19H275.217L275.721 22.132C276.477 20.008 278.637 18.568 281.193 18.568C283.893 18.568 286.089 20.188 287.097 22.672C287.817 20.26 290.337 18.568 293.145 18.568C297.105 18.568 299.553 21.88 299.553 25.912V37H296.673V26.2ZM310.841 37.432C305.621 37.432 301.841 33.472 301.841 28C301.841 22.528 305.621 18.568 310.841 18.568C316.061 18.568 319.841 22.528 319.841 28C319.841 33.472 316.061 37.432 310.841 37.432ZM304.865 28C304.865 31.816 307.385 34.552 310.841 34.552C314.297 34.552 316.817 31.816 316.817 28C316.817 24.148 314.297 21.376 310.841 21.376C307.385 21.376 304.865 24.148 304.865 28ZM335.337 26.272C335.337 23.464 333.501 21.448 330.801 21.448C327.813 21.448 325.329 23.932 325.329 27.352V37H322.449V19H324.897L325.293 22.312C326.229 20.08 328.353 18.568 331.233 18.568C335.301 18.568 338.217 21.7 338.217 26.056V37H335.337V26.272ZM349.298 37.432C344.114 37.432 340.514 33.508 340.514 28.072C340.514 22.564 344.114 18.568 349.154 18.568C354.338 18.568 357.65 22.744 357.65 28.504C357.65 28.648 357.65 28.828 357.614 29.116H343.682C344.114 32.32 346.346 34.552 349.298 34.552C351.674 34.552 353.834 33.04 354.266 30.952L357.506 31.96C356.714 35.128 353.33 37.432 349.298 37.432ZM343.754 26.308H354.554C353.978 23.14 351.602 21.376 349.01 21.376C346.346 21.376 344.294 23.356 343.754 26.308ZM357.734 19H361.118L366.374 32.824L371.27 19H374.582L366.662 39.592C365.546 42.472 363.566 44.344 361.118 44.632L360.326 41.608C361.91 41.464 363.134 40.672 363.782 39.016L364.79 36.424L357.734 19Z" fill="#00B140"/>
<line x1="162.49" y1="13" x2="162.49" y2="37" stroke="#C9C9C9" stroke-width="0.979111"/>
<path d="M189.984 41.8717C191.194 41.8717 192.338 41.6332 193.418 41.1601C194.497 40.6855 195.446 40.033 196.264 39.2019C197.083 38.3727 197.735 37.4058 198.221 36.3027C198.707 35.2005 198.951 34.0201 198.951 32.7619C198.951 31.5057 198.72 30.3248 198.257 29.2221C197.794 28.1185 197.16 27.1578 196.353 26.3407C195.546 25.5216 194.61 24.8752 193.543 24.4007C192.475 23.9261 191.336 23.6886 190.127 23.6886C188.917 23.6886 187.766 23.9261 186.675 24.4007C185.584 24.8752 184.617 25.5216 183.775 26.3407C182.933 27.1578 182.269 28.1185 181.783 29.2221C181.297 30.3248 181.053 31.5057 181.053 32.7619C181.053 34.0201 181.29 35.2005 181.765 36.3027C182.239 37.4058 182.885 38.3727 183.704 39.2019C184.522 40.033 185.471 40.6913 186.551 41.1783C187.63 41.6635 188.774 41.9067 189.984 41.9067V41.8717ZM189.95 20.9511C191.626 20.9511 193.193 21.2668 194.651 21.8973C196.109 22.5298 197.377 23.3848 198.457 24.463C199.535 25.5432 200.386 26.8004 201.006 28.2351C201.625 29.6698 201.935 31.2034 201.935 32.832C201.935 34.4629 201.625 35.9951 201.006 37.4293C200.386 38.865 199.535 40.1164 198.457 41.1836C197.377 42.2508 196.109 43.0953 194.651 43.7148C193.193 44.3347 191.626 44.6447 189.95 44.6447C188.274 44.6447 186.707 44.3347 185.249 43.7148C183.791 43.0953 182.529 42.246 181.461 41.1663C180.393 40.0877 179.55 38.831 178.929 37.3953C178.31 35.962 178 34.4289 178 32.7979C178 31.1679 178.31 29.6357 178.929 28.2005C179.55 26.7653 180.399 25.5091 181.478 24.4285C182.557 23.3503 183.82 22.5005 185.267 21.8805C186.713 21.2611 188.274 20.9511 189.95 20.9511Z" fill="#00B140"/>
<path d="M185.803 41.8307C185.803 41.8307 183.533 19.473 199.182 5.94049L194.24 4.71306C194.24 4.71306 181.815 15.8099 183.04 39.4968L185.803 41.8307Z" fill="#00B140"/>
<path d="M189.919 42.8164C189.919 42.8164 189.16 21.2897 209.801 6.24333L204.998 4.97319C204.998 4.97319 187.498 18.0498 187.115 41.5544L189.919 42.8164Z" fill="#BAFF29"/>
<path d="M194.512 42.1151C194.512 42.1151 197.857 21.479 221 8.71664L216.076 6.74833C216.076 6.74833 195.109 17.3922 191.61 41.8085L194.512 42.1151Z" fill="#00B140"/>
<path d="M198.741 34.6933C198.62 35.2465 198.45 35.7835 198.221 36.3027C197.735 37.4058 197.083 38.3727 196.264 39.2019C195.446 40.033 194.497 40.6855 193.418 41.1601C192.338 41.6332 191.441 41.8655 189.984 41.8717C189.984 41.8717 187.985 41.8256 186.551 41.1783C185.472 40.6903 184.522 40.033 183.704 39.2019C182.885 38.3727 182.239 37.4058 181.765 36.3027C181.541 35.7835 181.375 35.2465 181.257 34.6933H178.161C178.31 35.628 178.557 36.532 178.93 37.3953C179.55 38.8309 180.394 40.0877 181.461 41.1663C182.529 42.246 183.791 43.0953 185.249 43.7148C186.707 44.3347 188.274 44.6447 189.95 44.6447C191.626 44.6447 193.193 44.3347 194.652 43.7148C196.109 43.0953 197.377 42.2508 198.457 41.1836C199.536 40.1164 200.385 38.865 201.005 37.4293C201.383 36.5551 201.631 35.6405 201.779 34.6933H198.741Z" fill="#00B140"/>
</svg>
