<svg width="214" height="27" viewBox="0 0 214 27" fill="none" xmlns="http://www.w3.org/2000/svg">
<path d="M23.5788 4.55188C21.5262 4.55188 19.8269 6.05733 19.4973 8.03101C19.1678 6.0569 17.4685 4.55188 15.4158 4.55188C13.3632 4.55188 11.6639 6.05733 11.3343 8.03101C11.0048 6.0569 9.30547 4.55188 7.25281 4.55188C4.96456 4.55188 3.10938 6.42126 3.10938 8.72701C3.10938 11.0328 4.96456 12.9021 7.25281 12.9021C9.30547 12.9021 11.0048 11.3967 11.3343 9.42301C11.6639 11.3971 13.3632 12.9021 15.4158 12.9021C17.4685 12.9021 19.1678 11.3967 19.4973 9.42301C19.8269 11.3971 21.5262 12.9021 23.5788 12.9021C25.8671 12.9021 27.7223 11.0328 27.7223 8.72701C27.7223 6.42126 25.8671 4.55188 23.5788 4.55188V4.55188Z" fill="#00B140"/>
<path d="M23.5788 17.0979C21.5262 17.0979 19.8269 18.6034 19.4973 20.577C19.1678 18.6029 17.4685 17.0979 15.4158 17.0979C13.3632 17.0979 11.6639 18.6034 11.3343 20.577C11.0048 18.6029 9.30547 17.0979 7.25281 17.0979C4.96456 17.0979 3.10938 18.9673 3.10938 21.273C3.10938 23.5788 4.96456 25.4482 7.25281 25.4482C9.30547 25.4482 11.0048 23.9427 11.3343 21.969C11.6639 23.9431 13.3632 25.4482 15.4158 25.4482C17.4685 25.4482 19.1678 23.9427 19.4973 21.969C19.8269 23.9431 21.5262 25.4482 23.5788 25.4482C25.8671 25.4482 27.7223 23.5788 27.7223 21.273C27.7223 18.9673 25.8671 17.0979 23.5788 17.0979V17.0979Z" fill="#00B140"/>
<path d="M52.0818 9.04343C49.0578 9.04343 46.5977 11.5224 46.5977 14.57C46.5977 17.6175 49.0578 20.0965 52.0818 20.0965C53.6161 20.0965 55.0036 19.4564 56.0001 18.4296V23.8344H57.5664V14.57C57.5664 11.5228 55.1058 9.04343 52.0818 9.04343V9.04343ZM52.0818 18.5182C49.9213 18.5182 48.1636 16.747 48.1636 14.57C48.1636 12.393 49.9213 10.6218 52.0818 10.6218C54.2423 10.6218 56.0001 12.393 56.0001 14.57C56.0001 16.747 54.2423 18.5182 52.0818 18.5182Z" fill="#00B140"/>
<path d="M76.2342 9.04343C73.2102 9.04343 70.75 11.5224 70.75 14.57C70.75 17.6175 73.2102 20.0965 76.2342 20.0965C77.7685 20.0965 79.156 19.4564 80.1524 18.4296V20.0965H81.7187V14.57C81.7187 11.5228 79.2581 9.04343 76.2342 9.04343V9.04343ZM76.2342 18.5182C74.0737 18.5182 72.3159 16.747 72.3159 14.57C72.3159 12.393 74.0737 10.6218 76.2342 10.6218C78.3946 10.6218 80.1524 12.393 80.1524 14.57C80.1524 16.747 78.3946 18.5182 76.2342 18.5182Z" fill="#00B140"/>
<path d="M40.1194 9.04343C37.0954 9.04343 34.6348 11.5224 34.6348 14.57C34.6348 17.6175 37.0954 20.0965 40.1194 20.0965C41.5839 20.0965 42.9615 19.5218 43.9973 18.478L44.5512 17.9199L43.4439 16.8037L42.89 17.3618C42.1499 18.1076 41.1656 18.5182 40.1194 18.5182C38.2269 18.5182 36.6437 17.1594 36.2795 15.3589H45.6035V14.57C45.6035 11.5228 43.1433 9.04343 40.1194 9.04343V9.04343ZM36.2795 13.7806C36.6437 11.9802 38.2269 10.6213 40.1194 10.6213C42.0118 10.6213 43.595 11.9802 43.9588 13.7806H36.2795V13.7806Z" fill="#00B140"/>
<path d="M85.2167 6.16586H83.6504V20.0972H85.2167V6.16586Z" fill="#00B140"/>
<path d="M68.065 14.5706C68.065 16.7476 66.3072 18.5188 64.1467 18.5188C61.9862 18.5188 60.2285 16.7476 60.2285 14.5706V9.48785H58.6621V14.5706C58.6621 17.6177 61.1227 20.0972 64.1467 20.0972C67.1707 20.0972 69.6313 17.6182 69.6313 14.5706V9.48785H68.065V14.5706V14.5706Z" fill="#00B140"/>
<path d="M97.4668 9L97.4668 21" stroke="#E7E7E7" stroke-linecap="round"/>
<g clip-path="url(#clip0_3662_110)">
<path d="M113.602 21.1787C114.222 21.1787 114.807 21.0566 115.36 20.8144C115.912 20.5715 116.398 20.2374 116.817 19.8119C117.236 19.3873 117.57 18.8923 117.819 18.3275C118.068 17.7632 118.192 17.1589 118.192 16.5148C118.192 15.8716 118.074 15.267 117.837 14.7025C117.6 14.1375 117.275 13.6456 116.863 13.2273C116.45 12.8079 115.97 12.477 115.424 12.234C114.877 11.9911 114.294 11.8695 113.675 11.8695C113.056 11.8695 112.466 11.9911 111.908 12.234C111.349 12.477 110.854 12.8079 110.423 13.2273C109.992 13.6456 109.652 14.1375 109.403 14.7025C109.154 15.267 109.03 15.8716 109.03 16.5148C109.03 17.1589 109.151 17.7632 109.394 18.3275C109.637 18.8923 109.968 19.3873 110.387 19.8119C110.806 20.2374 111.292 20.5744 111.844 20.8238C112.397 21.0721 112.983 21.1967 113.602 21.1967V21.1787ZM113.585 10.4679C114.443 10.4679 115.245 10.6296 115.991 10.9524C116.738 11.2762 117.387 11.714 117.94 12.266C118.492 12.819 118.927 13.4626 119.244 14.1972C119.562 14.9317 119.72 15.7168 119.72 16.5506C119.72 17.3857 119.562 18.1701 119.244 18.9044C118.927 19.6394 118.492 20.2801 117.94 20.8265C117.387 21.3728 116.738 21.8052 115.991 22.1223C115.245 22.4397 114.443 22.5984 113.585 22.5984C112.727 22.5984 111.924 22.4397 111.178 22.1223C110.432 21.8052 109.785 21.3704 109.239 20.8176C108.692 20.2654 108.26 19.622 107.943 18.8869C107.625 18.1531 107.467 17.3682 107.467 16.5332C107.467 15.6987 107.625 14.9143 107.943 14.1795C108.26 13.4447 108.695 12.8015 109.248 12.2483C109.8 11.6963 110.446 11.2612 111.187 10.9438C111.927 10.6266 112.727 10.4679 113.585 10.4679Z" fill="#00B140"/>
<path d="M111.462 21.1559C111.462 21.1559 110.3 9.70937 118.311 2.78109L115.781 2.15268C115.781 2.15268 109.42 7.83395 110.047 19.961L111.462 21.1559Z" fill="#00B140"/>
<path d="M113.57 21.6601C113.57 21.6601 113.182 10.639 123.749 2.93563L121.29 2.28535C121.29 2.28535 112.331 8.98025 112.135 21.014L113.57 21.6601Z" fill="#BAFF29"/>
<path d="M115.921 21.3019C115.921 21.3019 117.634 10.7368 129.482 4.20283L126.961 3.19511C126.961 3.19511 116.227 8.64448 114.436 21.145L115.921 21.3019Z" fill="#00B140"/>
<path d="M118.087 17.5036C118.025 17.7868 117.938 18.0617 117.821 18.3275C117.572 18.8923 117.238 19.3873 116.819 19.8119C116.4 20.2374 115.914 20.5715 115.362 20.8144C114.809 21.0566 114.349 21.1756 113.604 21.1787C113.604 21.1787 112.58 21.1552 111.846 20.8238C111.294 20.5739 110.807 20.2374 110.389 19.8119C109.969 19.3873 109.639 18.8923 109.396 18.3275C109.281 18.0617 109.196 17.7868 109.136 17.5036H107.551C107.627 17.9821 107.753 18.445 107.944 18.8869C108.262 19.622 108.694 20.2654 109.24 20.8176C109.787 21.3704 110.433 21.8052 111.18 22.1223C111.926 22.4397 112.728 22.5984 113.586 22.5984C114.444 22.5984 115.246 22.4397 115.993 22.1223C116.739 21.8052 117.388 21.3728 117.941 20.8265C118.493 20.2801 118.928 19.6394 119.246 18.9044C119.439 18.4568 119.566 17.9885 119.642 17.5036H118.087Z" fill="#00B140"/>
</g>
<path d="M131.819 20.3435C129.161 20.3435 127.267 18.3407 127.267 15.5733C127.267 12.8058 129.161 10.8031 131.819 10.8031C134.477 10.8031 136.37 12.8058 136.37 15.5733C136.37 18.3407 134.477 20.3435 131.819 20.3435ZM131.819 18.9051C133.567 18.9051 134.859 17.4668 134.859 15.5733C134.859 13.6616 133.567 12.205 131.819 12.205C130.071 12.205 128.778 13.6616 128.778 15.5733C128.778 17.4668 130.071 18.9051 131.819 18.9051ZM142.344 10.8031C144.383 10.8031 145.876 12.4053 145.876 14.5901V20.125H144.419V14.6629C144.419 13.2792 143.509 12.2596 142.198 12.2596C140.523 12.2596 139.394 13.4977 139.358 15.1727V20.125H137.901V11.0216H139.139L139.267 12.5874C139.704 11.4767 140.942 10.8031 142.344 10.8031ZM155.735 17.576C155.371 19.1782 153.66 20.3435 151.766 20.3435C149.217 20.3435 147.324 18.3407 147.324 15.5733C147.324 12.8058 149.181 10.8031 151.693 10.8031C154.17 10.8031 155.899 12.7694 155.899 15.5005C155.899 15.7007 155.899 15.9374 155.881 16.1377H148.926C149.035 17.7763 150.164 18.9416 151.693 18.9416C153.004 18.9416 154.024 18.1587 154.17 16.9934L155.735 17.576ZM148.908 14.7358H154.406C154.333 13.2428 153.132 12.1686 151.675 12.1686C150.219 12.1686 149.017 13.2428 148.908 14.7358ZM167.822 10.8031C169.679 10.8031 170.972 12.3325 170.972 14.4445V20.125H169.534V14.5901C169.534 13.2064 168.696 12.2596 167.458 12.2596C166.038 12.2596 164.964 13.4977 164.927 15.2456V20.125H163.471V14.6629C163.471 13.3156 162.615 12.2596 161.377 12.2596C159.884 12.2596 158.846 13.4977 158.81 15.2456V20.125H157.353V11.0216H158.592L158.719 12.6238C159.174 11.5496 160.303 10.8031 161.668 10.8031C163.034 10.8031 164.108 11.6224 164.618 12.8423C165 11.6406 166.311 10.8031 167.822 10.8031ZM176.982 20.3435C174.324 20.3435 172.43 18.3407 172.43 15.5733C172.43 12.8058 174.324 10.8031 176.982 10.8031C179.64 10.8031 181.533 12.8058 181.533 15.5733C181.533 18.3407 179.64 20.3435 176.982 20.3435ZM176.982 18.9051C178.73 18.9051 180.022 17.4668 180.022 15.5733C180.022 13.6616 178.73 12.205 176.982 12.205C175.234 12.205 173.941 13.6616 173.941 15.5733C173.941 17.4668 175.234 18.9051 176.982 18.9051ZM187.507 10.8031C189.546 10.8031 191.039 12.4053 191.039 14.5901V20.125H189.582V14.6629C189.582 13.2792 188.672 12.2596 187.361 12.2596C185.686 12.2596 184.557 13.4977 184.521 15.1727V20.125H183.064V11.0216H184.302L184.43 12.5874C184.867 11.4767 186.105 10.8031 187.507 10.8031ZM200.898 17.576C200.534 19.1782 198.823 20.3435 196.929 20.3435C194.38 20.3435 192.487 18.3407 192.487 15.5733C192.487 12.8058 194.344 10.8031 196.856 10.8031C199.332 10.8031 201.062 12.7694 201.062 15.5005C201.062 15.7007 201.062 15.9374 201.044 16.1377H194.089C194.198 17.7763 195.327 18.9416 196.856 18.9416C198.167 18.9416 199.187 18.1587 199.332 16.9934L200.898 17.576ZM194.071 14.7358H199.569C199.496 13.2428 198.295 12.1686 196.838 12.1686C195.382 12.1686 194.18 13.2428 194.071 14.7358ZM201.497 11.0216H203.208L205.939 18.013H205.976L208.634 11.0216H210.309L206.085 21.2902C205.521 22.674 204.446 23.73 203.208 23.9484L202.844 22.5647C203.718 22.3462 204.228 21.8729 204.519 21.2174L205.175 19.7609L201.497 11.0216Z" fill="#00B140"/>
<defs>
<clipPath id="clip0_3662_110">
<rect width="23" height="23" fill="white" transform="translate(107.467 0.874969)"/>
</clipPath>
</defs>
</svg>
