<svg width="20" height="18" viewBox="0 0 20 18" fill="none" xmlns="http://www.w3.org/2000/svg">
<path d="M5.59371 16.2564C6.12311 16.2564 6.62355 16.1521 7.09586 15.9451C7.56796 15.7375 7.98317 15.452 8.34107 15.0884C8.69919 14.7257 8.98446 14.3027 9.19732 13.8201C9.40975 13.3379 9.51639 12.8215 9.51639 12.2711C9.51639 11.7216 9.41542 11.205 9.21285 10.7226C9.01049 10.2398 8.73278 9.81954 8.37991 9.46206C8.02704 9.10373 7.61729 8.82098 7.15044 8.61337C6.68337 8.40577 6.18525 8.30186 5.65605 8.30186C5.12685 8.30186 4.62327 8.40577 4.14613 8.61337C3.66878 8.82098 3.24559 9.10373 2.87761 9.46206C2.509 9.81954 2.21848 10.2398 2.00584 10.7226C1.79319 11.205 1.68655 11.7216 1.68655 12.2711C1.68655 12.8215 1.79046 13.3379 1.99807 13.8201C2.20546 14.3027 2.48822 14.7257 2.84655 15.0884C3.20445 15.452 3.61945 15.74 4.09176 15.9531C4.56386 16.1653 5.06451 16.2717 5.59371 16.2717V16.2564ZM5.57901 7.10429C6.31204 7.10429 6.99741 7.24242 7.63555 7.51825C8.27327 7.79491 8.82808 8.16898 9.30039 8.64066C9.77207 9.11318 10.144 9.66316 10.4152 10.2908C10.6865 10.9185 10.8221 11.5893 10.8221 12.3018C10.8221 13.0153 10.6865 13.6856 10.4152 14.313C10.144 14.9411 9.77207 15.4885 9.30039 15.9554C8.82808 16.4222 8.27327 16.7917 7.63555 17.0627C6.99741 17.3339 6.31204 17.4695 5.57901 17.4695C4.84578 17.4695 4.16019 17.3339 3.52247 17.0627C2.88454 16.7917 2.33225 16.4201 1.86519 15.9478C1.39813 15.4759 1.0291 14.9262 0.75768 14.2981C0.486679 13.6711 0.351074 13.0004 0.351074 12.2869C0.351074 11.5738 0.486679 10.9035 0.75768 10.2757C1.0291 9.64783 1.40044 9.09828 1.87275 8.62555C2.34464 8.15387 2.89714 7.78211 3.53003 7.5109C4.16271 7.2399 4.84578 7.10429 5.57901 7.10429Z" fill="#00B140"/>
<path d="M3.76448 16.2378C3.76448 16.2378 2.7718 6.457 9.61734 0.536976L7.45542 1.33514e-05C7.45542 1.33514e-05 2.01988 4.85451 2.556 15.2168L3.76448 16.2378Z" fill="#00B140"/>
<path d="M5.56491 16.6689C5.56491 16.6689 5.23304 7.25173 14.263 0.669418L12.1615 0.113775C12.1615 0.113775 4.50589 5.83438 4.33838 16.1169L5.56491 16.6689Z" fill="#BAFF29"/>
<path d="M7.57425 16.3625C7.57425 16.3625 9.03778 7.33494 19.162 1.75182L17.0078 0.890749C17.0078 0.890749 7.83539 5.54709 6.30469 16.2284L7.57425 16.3625Z" fill="#00B140"/>
<path d="M9.42465 13.1161C9.37175 13.3581 9.29723 13.593 9.1971 13.8201C8.98446 14.3027 8.69897 14.7257 8.34086 15.0884C7.98316 15.452 7.56795 15.7375 7.09585 15.9451C6.62333 16.1521 6.23079 16.2537 5.5937 16.2564C5.5937 16.2564 4.71919 16.2362 4.09175 15.9531C3.61965 15.7396 3.20423 15.452 2.84633 15.0884C2.48821 14.7257 2.20546 14.3027 1.99806 13.8201C1.90024 13.593 1.82761 13.3581 1.77576 13.1161H0.421387C0.48646 13.525 0.594567 13.9204 0.757671 14.2981C1.02888 14.9262 1.39812 15.4759 1.86518 15.9478C2.33224 16.4201 2.88432 16.7917 3.52225 17.0627C4.15998 17.3339 4.84556 17.4695 5.57879 17.4695C6.31182 17.4695 6.9974 17.3339 7.63554 17.0627C8.27305 16.7917 8.82786 16.4222 9.30038 15.9554C9.77206 15.4885 10.1438 14.9411 10.415 14.313C10.5802 13.9305 10.689 13.5304 10.7536 13.1161H9.42465Z" fill="#00B140"/>
</svg> 