<svg width="71" height="21" viewBox="0 0 71 21" fill="none" xmlns="http://www.w3.org/2000/svg">
<path d="M18.7532 1.81665C17.0775 1.81665 15.6902 3.0457 15.4211 4.65701C15.1521 3.04535 13.7648 1.81665 12.089 1.81665C10.4132 1.81665 9.02587 3.0457 8.75683 4.65701C8.48778 3.04535 7.10048 1.81665 5.42469 1.81665C3.55657 1.81665 2.04199 3.34281 2.04199 5.22522C2.04199 7.10763 3.55657 8.6338 5.42469 8.6338C7.10048 8.6338 8.48778 7.40474 8.75683 5.79344C9.02587 7.4051 10.4132 8.6338 12.089 8.6338C13.7648 8.6338 15.1521 7.40474 15.4211 5.79344C15.6902 7.4051 17.0775 8.6338 18.7532 8.6338C20.6214 8.6338 22.1359 7.10763 22.1359 5.22522C22.1359 3.34281 20.6214 1.81665 18.7532 1.81665Z" fill="#00B140"/>
<path d="M18.7532 12.0596C17.0775 12.0596 15.6902 13.2886 15.4211 14.8999C15.1521 13.2883 13.7648 12.0596 12.089 12.0596C10.4132 12.0596 9.02587 13.2886 8.75683 14.8999C8.48778 13.2883 7.10048 12.0596 5.42469 12.0596C3.55657 12.0596 2.04199 13.5857 2.04199 15.4681C2.04199 17.3506 3.55657 18.8767 5.42469 18.8767C7.10048 18.8767 8.48778 17.6477 8.75683 16.0364C9.02587 17.648 10.4132 18.8767 12.089 18.8767C13.7648 18.8767 15.1521 17.6477 15.4211 16.0364C15.6902 17.648 17.0775 18.8767 18.7532 18.8767C20.6214 18.8767 22.1359 17.3506 22.1359 15.4681C22.1359 13.5857 20.6214 12.0596 18.7532 12.0596Z" fill="#00B140"/>
<path d="M42.0261 5.48389C39.5573 5.48389 37.5488 7.50773 37.5488 9.99576C37.5488 12.4838 39.5573 14.5076 42.0261 14.5076C43.2787 14.5076 44.4114 13.985 45.2249 13.1468V17.5592H46.5037V9.99576C46.5037 7.50808 44.4949 5.48389 42.0261 5.48389ZM42.0261 13.2191C40.2623 13.2191 38.8272 11.7731 38.8272 9.99576C38.8272 8.21844 40.2623 6.77243 42.0261 6.77243C43.7899 6.77243 45.2249 8.21844 45.2249 9.99576C45.2249 11.7731 43.7899 13.2191 42.0261 13.2191Z" fill="#00B140"/>
<path d="M61.7414 5.48389C59.2726 5.48389 57.2642 7.50773 57.2642 9.99576C57.2642 12.4838 59.2726 14.5076 61.7414 14.5076C62.994 14.5076 64.1268 13.985 64.9403 13.1468V14.5076H66.219V9.99576C66.219 7.50808 64.2102 5.48389 61.7414 5.48389ZM61.7414 13.2191C59.9776 13.2191 58.5426 11.7731 58.5426 9.99576C58.5426 8.21844 59.9776 6.77243 61.7414 6.77243C63.5052 6.77243 64.9403 8.21844 64.9403 9.99576C64.9403 11.7731 63.5052 13.2191 61.7414 13.2191Z" fill="#00B140"/>
<path d="M32.2569 5.48389C29.7881 5.48389 27.7793 7.50773 27.7793 9.99576C27.7793 12.4838 29.7881 14.5076 32.2569 14.5076C33.4526 14.5076 34.5772 14.0384 35.4229 13.1863L35.8751 12.7307L34.9711 11.8194L34.5189 12.275C33.9147 12.8839 33.1111 13.2191 32.2569 13.2191C30.7119 13.2191 29.4194 12.1097 29.1221 10.6399H36.7342V9.99576C36.7342 7.50808 34.7257 5.48389 32.2569 5.48389ZM29.1221 9.35131C29.4194 7.88143 30.7119 6.77208 32.2569 6.77208C33.8019 6.77208 35.0944 7.88143 35.3914 9.35131H29.1221Z" fill="#00B140"/>
<path d="M69.0742 3.13477H67.7954V14.5083H69.0742V3.13477Z" fill="#00B140"/>
<path d="M55.073 9.996C55.073 11.7733 53.6379 13.2193 51.8741 13.2193C50.1103 13.2193 48.6753 11.7733 48.6753 9.996V5.84644H47.3965V9.996C47.3965 12.4837 49.4053 14.5079 51.8741 14.5079C54.3429 14.5079 56.3517 12.484 56.3517 9.996V5.84644H55.073V9.996Z" fill="#00B140"/>
</svg>
